<svg width="100" height="37" viewBox="0 0 100 37" fill="none" xmlns="http://www.w3.org/2000/svg">
<rect x="34.3691" y="16.0193" width="31.2621" height="3.88349" rx="1.94175" fill="#D8B675"/>
<rect x="6.21387" y="0.29126" width="87.6699" height="3.88349" rx="1.94175" fill="#D8B675"/>
<rect width="22.1512" height="3.8543" rx="1.92715" transform="matrix(-0.596814 -0.80238 -0.802479 0.59668 38.8369 17.7737)" fill="#D8B675"/>
<rect width="22.0691" height="3.82845" rx="1.91423" transform="matrix(0.592782 -0.805363 0.799467 0.600709 61.165 18.0649)" fill="#D8B675"/>
<path fill-rule="evenodd" clip-rule="evenodd" d="M22.697 26.7032L17.1834 21.3283L17.171 21.3163L17.1709 21.3162C17.1709 21.3162 17.1708 21.3161 17.0861 21.403C17.0015 21.4899 17.0015 21.4899 17.0015 21.4899L17.0015 21.4899L17.0016 21.49L17.1855 21.6693L22.5391 26.8882L22.5456 26.893C22.8688 27.1339 23.1424 27.2883 23.443 27.3748C23.7431 27.4612 24.061 27.4774 24.4683 27.4561L24.4695 27.4561L24.4706 27.456C24.822 27.431 25.095 27.3844 25.3599 27.2962C25.6241 27.2084 25.875 27.081 26.183 26.9004L26.1938 26.894L26.2031 26.8856C26.3643 26.7393 26.5052 26.5989 26.6268 26.4596C26.8548 26.1981 27.0147 25.9403 27.1125 25.6539C27.2621 25.2156 27.2609 24.726 27.1636 24.0813L27.1633 24.0795L27.163 24.0778C27.0837 23.6398 26.8959 23.3189 26.648 23.0903C26.4016 22.863 26.102 22.7328 25.8062 22.6642C25.5106 22.5957 25.2145 22.5877 24.9688 22.6083C24.7265 22.6285 24.5206 22.6775 24.4089 22.732C24.0035 22.9296 23.5831 23.4212 23.7924 24.1336C23.8113 24.1979 23.8787 24.2347 23.943 24.2158C24.0073 24.1969 24.0441 24.1295 24.0252 24.0652C23.8588 23.4986 24.1829 23.1121 24.5152 22.9501C24.5878 22.9147 24.7594 22.8693 24.989 22.8501C25.2151 22.8312 25.4852 22.8389 25.7514 22.9006C26.0176 22.9623 26.2755 23.0769 26.4835 23.2687C26.6899 23.459 26.8533 23.7309 26.9239 24.1192C27.0188 24.749 27.0137 25.1922 26.8828 25.5755C26.7531 25.9556 26.4944 26.2922 26.0494 26.6974C25.7524 26.8711 25.5211 26.9869 25.2833 27.066C25.0437 27.1457 24.7923 27.1898 24.4546 27.2139C24.0594 27.2344 23.7726 27.2172 23.5102 27.1416C23.2499 27.0667 23.0047 26.9319 22.697 26.7032ZM16.9993 21.3183C16.9525 21.3663 16.9535 21.4431 17.0015 21.4899L17.0861 21.403L17.1709 21.3162C17.1519 21.2976 17.1283 21.2866 17.1039 21.283C17.0667 21.2775 17.0275 21.2893 16.9993 21.3183Z" fill="#D8B675"/>
<path fill-rule="evenodd" clip-rule="evenodd" d="M22.7351 16.1197L17.1855 21.6693L17.1719 21.6829C17.1719 21.6829 17.1719 21.6829 17.0861 21.5971C17.0004 21.5113 17.0004 21.5113 17.0004 21.5113L17.1834 21.3283L22.575 15.9367L22.5814 15.9318C22.9067 15.6831 23.1821 15.5237 23.485 15.4342C23.7874 15.3449 24.1077 15.3282 24.5179 15.3502L24.519 15.3502L24.5202 15.3503C24.8741 15.3761 25.1491 15.4243 25.4159 15.5154C25.6692 15.6018 25.9103 15.7252 26.2003 15.8978C26.215 15.9065 26.2297 15.9153 26.2446 15.9242L26.2555 15.9308L26.2647 15.9394C26.4037 16.0688 26.5276 16.1936 26.6371 16.3171C26.8954 16.6083 27.0735 16.892 27.1791 17.2095C27.2631 17.4621 27.2998 17.7312 27.2986 18.036C27.2977 18.2757 27.2734 18.5374 27.2303 18.8303L27.23 18.832L27.2297 18.8337C27.1502 19.2846 26.9617 19.6151 26.7126 19.8507C26.4647 20.0852 26.1632 20.2198 25.8651 20.2907C25.5672 20.3615 25.2689 20.3697 25.0214 20.3485C24.7773 20.3276 24.5698 20.2769 24.4571 20.2206C24.0482 20.0162 23.6285 19.5101 23.8379 18.7793C23.8563 18.7148 23.9235 18.6776 23.9879 18.696C24.0523 18.7145 24.0896 18.7817 24.0711 18.8461C23.9022 19.4359 24.232 19.8367 24.5657 20.0036C24.6387 20.0401 24.8111 20.0869 25.0421 20.1067C25.2695 20.1262 25.5412 20.1183 25.809 20.0546C26.0765 19.991 26.3362 19.8727 26.5459 19.6744C26.754 19.4775 26.9191 19.1958 26.9905 18.7933C27.0861 18.1425 27.0811 17.6834 26.9489 17.2861C26.8178 16.8923 26.5567 16.5441 26.1087 16.1256C25.8097 15.9463 25.5768 15.8267 25.3376 15.745C25.0965 15.6628 24.8436 15.6173 24.5037 15.5924C24.106 15.5712 23.8176 15.589 23.5537 15.6669C23.2919 15.7442 23.045 15.8835 22.7351 16.1197ZM17.0004 21.6829C16.953 21.6355 16.953 21.5587 17.0004 21.5113L17.0861 21.5971L17.1719 21.6829C17.1644 21.6905 17.156 21.6969 17.1471 21.702C17.1007 21.7291 17.0401 21.7227 17.0004 21.6829Z" fill="#D8B675"/>
<path fill-rule="evenodd" clip-rule="evenodd" d="M20.53 14.3742L15.1552 19.8878L15.1431 19.9002L15.143 19.9003L15.143 19.9004C15.143 19.9004 15.143 19.9004 15.2298 19.9851C15.3167 20.0698 15.3167 20.0697 15.3167 20.0697L15.3169 20.0696L15.4962 19.8857L20.715 14.5321L20.7198 14.5257C20.9607 14.2024 21.1151 13.9289 21.2016 13.6282C21.288 13.3281 21.3042 13.0102 21.283 12.6029L21.2829 12.6017L21.2828 12.6006C21.2578 12.2492 21.2112 11.9762 21.1231 11.7113C21.0352 11.4471 20.9078 11.1963 20.7272 10.8882L20.7208 10.8774L20.7124 10.8681C20.5471 10.6859 20.3893 10.5297 20.2321 10.398C19.9891 10.1945 19.7473 10.0497 19.4807 9.95873C19.0424 9.80913 18.5528 9.81034 17.9081 9.90766L17.9063 9.90792L17.9046 9.90824C17.4666 9.98748 17.1457 10.1754 16.9172 10.4232C16.6898 10.6697 16.5596 10.9692 16.491 11.265C16.4225 11.5606 16.4146 11.8567 16.4351 12.1024C16.4553 12.3447 16.5044 12.5506 16.5588 12.6623C16.7564 13.0677 17.248 13.4881 17.9604 13.2788C18.0247 13.2599 18.0615 13.1925 18.0426 13.1282C18.0237 13.0639 17.9563 13.0271 17.892 13.046C17.3254 13.2124 16.9389 12.8883 16.777 12.556C16.7415 12.4834 16.6961 12.3118 16.6769 12.0822C16.658 11.8561 16.6657 11.586 16.7274 11.3198C16.7891 11.0537 16.9037 10.7957 17.0955 10.5877C17.2858 10.3813 17.5577 10.2179 17.9461 10.1473C18.5758 10.0524 19.019 10.0576 19.4023 10.1884C19.7824 10.3181 20.119 10.5768 20.5242 11.0218C20.6979 11.3188 20.8137 11.5501 20.8928 11.7879C20.9725 12.0275 21.0166 12.2789 21.0407 12.6166C21.0612 13.0119 21.044 13.2987 20.9685 13.5611C20.8935 13.8213 20.7587 14.0666 20.53 14.3742ZM15.1451 20.0719C15.1931 20.1187 15.27 20.1177 15.3167 20.0697L15.2298 19.9851L15.143 19.9004C15.1044 19.9399 15.0983 19.9991 15.1242 20.0448C15.1297 20.0546 15.1367 20.0637 15.1451 20.0719Z" fill="#D8B675"/>
<path fill-rule="evenodd" clip-rule="evenodd" d="M9.94655 14.3361L15.4962 19.8857L15.5097 19.8993C15.5097 19.8993 15.5098 19.8993 15.424 19.9851C15.3382 20.0709 15.3382 20.0708 15.3382 20.0708L15.3381 20.0708L15.338 20.0707L15.1552 19.8878L9.76354 14.4962L9.75864 14.4898C9.50993 14.1645 9.35049 13.8891 9.26104 13.5862C9.17176 13.2839 9.15505 12.9636 9.17698 12.5533L9.17704 12.5522L9.17713 12.551C9.20294 12.1971 9.25114 11.9221 9.3422 11.6553C9.43298 11.3893 9.56458 11.1366 9.75106 10.8266L9.75759 10.8157L9.76622 10.8065C9.77802 10.7938 9.78977 10.7813 9.80149 10.7688C9.97288 10.5872 10.1368 10.4322 10.3006 10.3024C10.5383 10.1141 10.7759 9.97875 11.0364 9.8921C11.2364 9.82554 11.4469 9.7887 11.6772 9.77684C11.9664 9.76196 12.2868 9.78645 12.6572 9.84095L12.6589 9.8412L12.6606 9.8415C13.1114 9.92102 13.4419 10.1095 13.6775 10.3586C13.912 10.6065 14.0467 10.908 14.1175 11.2061C14.1884 11.504 14.1966 11.8023 14.1753 12.0499C14.1544 12.2939 14.1038 12.5014 14.0474 12.6141C13.843 13.023 13.337 13.4427 12.6061 13.2333C12.5417 13.2149 12.5044 13.1477 12.5229 13.0833C12.5413 13.0189 12.6085 12.9816 12.6729 13.0001C13.2628 13.169 13.6636 12.8392 13.8304 12.5056C13.8669 12.4326 13.9138 12.2601 13.9336 12.0291C13.9531 11.8017 13.9451 11.53 13.8815 11.2623C13.8178 10.9947 13.6996 10.735 13.5013 10.5254C13.3043 10.3172 13.0226 10.1521 12.6201 10.0808C11.9693 9.98513 11.5102 9.99015 11.113 10.1223C10.7191 10.2534 10.371 10.5145 9.95247 10.9625C9.77311 11.2616 9.6535 11.4944 9.57185 11.7337C9.48959 11.9747 9.44408 12.2276 9.41923 12.5675C9.39803 12.9652 9.41585 13.2536 9.49376 13.5175C9.57107 13.7793 9.7103 14.0262 9.94655 14.3361ZM15.5098 20.0709C15.4624 20.1182 15.3855 20.1182 15.3382 20.0708L15.424 19.9851L15.5097 19.8993C15.5386 19.9281 15.5499 19.9679 15.5436 20.0054C15.5395 20.0293 15.5283 20.0523 15.5098 20.0709Z" fill="#D8B675"/>
<path fill-rule="evenodd" clip-rule="evenodd" d="M8.20107 16.4741L13.7147 21.8489L13.727 21.861L13.7272 21.8611L13.7272 21.8611C13.7272 21.8611 13.7272 21.8612 13.8119 21.7743C13.8966 21.6874 13.8966 21.6874 13.8966 21.6874L13.8965 21.6874L13.8964 21.6872L13.7125 21.508L8.35893 16.2891L8.35249 16.2843C8.02921 16.0434 7.75569 15.889 7.45501 15.8025C7.15496 15.7161 6.83706 15.6999 6.4297 15.7211L6.42855 15.7212L6.42741 15.7213C6.07603 15.7463 5.80303 15.7929 5.53812 15.881C5.27397 15.9689 5.02308 16.0963 4.71508 16.2769L4.70422 16.2833L4.69491 16.2917C4.4836 16.4835 4.30715 16.6651 4.16348 16.8475C3.99193 17.0654 3.86713 17.2845 3.78556 17.5234C3.63596 17.9617 3.63717 18.4513 3.73449 19.096L3.73475 19.0978L3.73507 19.0995C3.81431 19.5375 4.00219 19.8584 4.25 20.087C4.49648 20.3143 4.79604 20.4445 5.0918 20.5131C5.38743 20.5816 5.68351 20.5895 5.92926 20.569C6.17154 20.5488 6.37744 20.4997 6.48917 20.4453C6.89453 20.2477 7.3149 19.7561 7.10561 19.0437C7.08673 18.9794 7.0193 18.9426 6.95501 18.9615C6.89072 18.9804 6.85391 19.0478 6.8728 19.1121C7.03926 19.6787 6.71509 20.0652 6.38286 20.2272C6.31019 20.2626 6.13862 20.308 5.90906 20.3272C5.68297 20.3461 5.41283 20.3384 5.14659 20.2767C4.88048 20.215 4.62251 20.1004 4.4145 19.9086C4.20814 19.7183 4.04476 19.4464 3.97416 19.0581C3.87924 18.4283 3.88439 17.9851 4.01521 17.6018C4.14496 17.2217 4.40366 16.8851 4.84868 16.4799C5.14563 16.3062 5.37695 16.1904 5.61472 16.1113C5.85435 16.0316 6.10574 15.9875 6.44348 15.9634C6.83868 15.9429 7.12549 15.9601 7.38789 16.0357C7.64811 16.1106 7.89339 16.2454 8.20107 16.4741ZM13.8988 21.859C13.9455 21.811 13.9446 21.7342 13.8966 21.6874L13.8119 21.7743L13.7272 21.8611C13.7599 21.893 13.806 21.9027 13.8468 21.8905C13.8659 21.8848 13.8839 21.8743 13.8988 21.859Z" fill="#D8B675"/>
<path fill-rule="evenodd" clip-rule="evenodd" d="M8.16289 27.0576L13.7125 21.508L13.7261 21.4944C13.7261 21.4944 13.7261 21.4944 13.8119 21.5801C13.8977 21.6659 13.8977 21.666 13.8977 21.666L13.7147 21.8489L8.32305 27.2406L8.31664 27.2455C7.99132 27.4942 7.71593 27.6536 7.41303 27.7431C7.11069 27.8323 6.79038 27.8491 6.38017 27.8271L6.37899 27.8271L6.37782 27.827C6.02395 27.8012 5.74895 27.753 5.48211 27.6619C5.21608 27.5711 4.96347 27.4395 4.65343 27.2531L4.64257 27.2465L4.6333 27.2379C4.58337 27.1914 4.53538 27.1455 4.4893 27.1001C4.29127 26.9047 4.12856 26.7174 3.99896 26.5265C3.87683 26.3467 3.78411 26.1637 3.71892 25.9678C3.67297 25.8297 3.64118 25.6866 3.622 25.5354C3.57853 25.1928 3.59984 24.8086 3.66777 24.347L3.66802 24.3452L3.66832 24.3435C3.74784 23.8927 3.93635 23.5622 4.18542 23.3266C4.43332 23.0921 4.73487 22.9575 5.03294 22.8866C5.33079 22.8158 5.6291 22.8076 5.87669 22.8288C6.12076 22.8497 6.32827 22.9004 6.4409 22.9567C6.8498 23.1611 7.2695 23.6671 7.06018 24.398C7.04173 24.4624 6.97455 24.4997 6.91013 24.4813C6.84572 24.4628 6.80845 24.3956 6.8269 24.3312C6.99583 23.7414 6.66601 23.3405 6.33239 23.1737C6.25939 23.1372 6.08689 23.0903 5.85597 23.0705C5.62856 23.0511 5.35686 23.059 5.08908 23.1227C4.82151 23.1863 4.56181 23.3045 4.35218 23.5028C4.14402 23.6998 3.97891 23.9815 3.90759 24.384C3.81195 25.0348 3.81697 25.4939 3.94916 25.8911C4.08022 26.285 4.34133 26.6331 4.78937 27.0516C5.08838 27.231 5.32121 27.3506 5.56048 27.4323C5.80155 27.5145 6.05445 27.56 6.3943 27.5849C6.79201 27.6061 7.08045 27.5883 7.34431 27.5103C7.60609 27.433 7.853 27.2938 8.16289 27.0576ZM13.8977 21.4944C13.9451 21.5417 13.9451 21.6186 13.8977 21.666L13.8119 21.5801L13.7261 21.4944C13.7578 21.4626 13.8028 21.4522 13.8432 21.4629C13.8632 21.4682 13.882 21.4787 13.8977 21.4944Z" fill="#D8B675"/>
<path fill-rule="evenodd" clip-rule="evenodd" d="M10.3009 28.8701L15.6758 23.3565L15.6878 23.3442L15.6879 23.3441L15.688 23.344C15.688 23.344 15.688 23.344 15.6011 23.2593C15.5142 23.1746 15.5142 23.1746 15.5142 23.1746L15.5142 23.1747L15.5141 23.1748L15.3348 23.3587L10.1159 28.7123L10.1111 28.7187C9.87019 29.042 9.71585 29.3155 9.6293 29.6162C9.54293 29.9163 9.52674 30.2342 9.54797 30.6415L9.54803 30.6427L9.54811 30.6438C9.5731 30.9952 9.61975 31.2682 9.70787 31.5331C9.79574 31.7972 9.92315 32.0481 10.1037 32.3561L10.1101 32.367L10.1186 32.3763C10.289 32.5641 10.4514 32.7244 10.6135 32.8586C10.8516 33.0557 11.089 33.1965 11.3503 33.2857C11.7885 33.4353 12.2781 33.4341 12.9229 33.3367L12.9246 33.3365L12.9264 33.3362C13.3643 33.2569 13.6853 33.069 13.9138 32.8212C14.1411 32.5747 14.2714 32.2752 14.3399 31.9794C14.4084 31.6838 14.4164 31.3877 14.3958 31.142C14.3756 30.8997 14.3266 30.6938 14.2721 30.582C14.0745 30.1767 13.5829 29.7563 12.8706 29.9656C12.8063 29.9845 12.7695 30.0519 12.7883 30.1162C12.8072 30.1805 12.8747 30.2173 12.939 30.1984C13.5055 30.032 13.8921 30.3561 14.054 30.6884C14.0894 30.761 14.1348 30.9326 14.154 31.1622C14.1729 31.3883 14.1652 31.6584 14.1035 31.9246C14.0418 32.1907 13.9272 32.4487 13.7354 32.6567C13.5451 32.8631 13.2732 33.0265 12.8849 33.0971C12.2551 33.192 11.8119 33.1868 11.4286 33.056C11.0485 32.9263 10.7119 32.6676 10.3067 32.2225C10.1331 31.9256 10.0172 31.6943 9.93812 31.4565C9.85841 31.2169 9.81432 30.9655 9.79024 30.6277C9.7697 30.2325 9.78695 29.9457 9.86249 29.6833C9.9374 29.4231 10.0723 29.1778 10.3009 28.8701ZM15.6858 23.1725C15.6378 23.1257 15.561 23.1267 15.5142 23.1746L15.6011 23.2593L15.688 23.344C15.6991 23.3326 15.7075 23.3196 15.7132 23.3058C15.7316 23.2613 15.7224 23.2081 15.6858 23.1725Z" fill="#D8B675"/>
<path fill-rule="evenodd" clip-rule="evenodd" d="M20.8844 28.9083L15.3348 23.3587L15.3212 23.3451C15.3212 23.3451 15.3212 23.3451 15.407 23.2593C15.4928 23.1735 15.4928 23.1735 15.4928 23.1735L15.4928 23.1736L15.4929 23.1737L15.6758 23.3565L21.0674 28.7482L21.0723 28.7546C21.321 29.0799 21.4805 29.3553 21.5699 29.6582C21.6592 29.9605 21.6759 30.2808 21.654 30.6911L21.6539 30.6922L21.6538 30.6934C21.628 31.0473 21.5798 31.3223 21.4887 31.5891C21.398 31.8551 21.2664 32.1077 21.0799 32.4178L21.0734 32.4286L21.0647 32.4379C21.0574 32.4458 21.05 32.4537 21.0427 32.4615C20.8728 32.6424 20.7106 32.7973 20.5486 32.9274C20.3048 33.1234 20.0617 33.2634 19.7946 33.3523C19.5898 33.4204 19.3741 33.4574 19.1374 33.4683C18.8525 33.4815 18.5372 33.4569 18.1738 33.4034L18.1721 33.4032L18.1704 33.4029C17.7196 33.3234 17.389 33.1349 17.1534 32.8858C16.9189 32.6379 16.7843 32.3363 16.7134 32.0383C16.6426 31.7404 16.6344 31.4421 16.6556 31.1945C16.6765 30.9505 16.7272 30.743 16.7835 30.6303C16.988 30.2214 17.494 29.8017 18.2248 30.011C18.2893 30.0295 18.3265 30.0967 18.3081 30.1611C18.2896 30.2255 18.2225 30.2628 18.158 30.2443C17.5682 30.0754 17.1674 30.4052 17.0005 30.7388C16.964 30.8118 16.9172 30.9843 16.8974 31.2153C16.8779 31.4427 16.8858 31.7144 16.9495 31.9821C17.0131 32.2497 17.1314 32.5094 17.3297 32.719C17.5266 32.9272 17.8083 33.0923 18.2108 33.1636C18.8616 33.2593 19.3207 33.2542 19.718 33.1221C20.1118 32.991 20.46 32.7299 20.8785 32.2818C21.0578 31.9828 21.1774 31.75 21.2591 31.5107C21.3414 31.2697 21.3869 31.0168 21.4117 30.6769C21.4329 30.2792 21.4151 29.9908 21.3372 29.7269C21.2599 29.4651 21.1206 29.2182 20.8844 28.9083ZM15.3212 23.1735C15.3686 23.1262 15.4454 23.1262 15.4928 23.1735L15.407 23.2593L15.3212 23.3451C15.3106 23.3346 15.3024 23.3225 15.2966 23.3097C15.2762 23.2649 15.2844 23.2103 15.3212 23.1735Z" fill="#D8B675"/>
<path fill-rule="evenodd" clip-rule="evenodd" d="M15.3883 36.7881C23.7754 36.7881 30.5745 29.989 30.5745 21.602C30.5745 13.2149 23.7754 6.41584 15.3883 6.41584C7.00128 6.41584 0.202212 13.2149 0.202212 21.602C0.202212 29.989 7.00128 36.7881 15.3883 36.7881ZM15.3883 36.9903C23.8871 36.9903 30.7767 30.1007 30.7767 21.602C30.7767 13.1032 23.8871 6.21362 15.3883 6.21362C6.8896 6.21362 0 13.1032 0 21.602C0 30.1007 6.8896 36.9903 15.3883 36.9903Z" fill="#D8B675"/>
<path fill-rule="evenodd" clip-rule="evenodd" d="M15.4086 33.8358C17.4407 33.8358 19.3569 33.3395 21.0427 32.4615C23.5269 31.1676 25.5106 29.0447 26.6268 26.4596C27.2673 24.9762 27.6222 23.3406 27.6222 21.6222C27.6222 19.5537 27.108 17.6052 26.2003 15.8978C24.9 13.4513 22.792 11.4996 20.2321 10.398C18.7524 9.76127 17.1217 9.40858 15.4086 9.40858C13.3873 9.40858 11.4807 9.89959 9.80149 10.7688C7.2845 12.0718 5.27856 14.2247 4.16348 16.8475C3.53993 18.3142 3.19495 19.9279 3.19495 21.6222C3.19495 23.5918 3.66118 25.4526 4.4893 27.1001C5.7816 29.671 7.95517 31.7227 10.6135 32.8586C12.0856 33.4876 13.7064 33.8358 15.4086 33.8358ZM15.4086 34.038C16.7078 34.038 17.9604 33.8385 19.1374 33.4683C19.6212 33.3162 20.0923 33.1352 20.5486 32.9274C24.8406 30.9729 27.8244 26.646 27.8244 21.6222C27.8244 20.3753 27.6406 19.1714 27.2986 18.036C27.1201 17.4431 26.8983 16.8689 26.6371 16.3171C24.6477 12.1138 20.3677 9.20636 15.4086 9.20636C14.1084 9.20636 12.855 9.4062 11.6772 9.77684C11.2056 9.92527 10.7461 10.1011 10.3006 10.3024C5.99135 12.25 2.99274 16.5859 2.99274 21.6222C2.99274 22.9895 3.21375 24.3051 3.622 25.5354C3.73384 25.8724 3.85972 26.203 3.99896 26.5265C5.90058 30.9446 10.2933 34.038 15.4086 34.038Z" fill="#D8B675"/>
<path fill-rule="evenodd" clip-rule="evenodd" d="M15.4895 23.1994C16.3382 23.1994 17.0263 22.5114 17.0263 21.6626C17.0263 20.8139 16.3382 20.1258 15.4895 20.1258C14.6407 20.1258 13.9526 20.8139 13.9526 21.6626C13.9526 22.5114 14.6407 23.1994 15.4895 23.1994ZM15.4895 23.3208C15.5653 23.3208 15.64 23.3157 15.7132 23.3058C16.5104 23.1983 17.128 22.5241 17.1471 21.702C17.1474 21.6889 17.1476 21.6758 17.1476 21.6626C17.1476 21.532 17.1325 21.4049 17.1039 21.283C16.9362 20.5671 16.3047 20.0298 15.5436 20.0054C15.5256 20.0048 15.5076 20.0045 15.4895 20.0045C15.364 20.0045 15.2417 20.0184 15.1242 20.0448C14.4475 20.197 13.9273 20.7629 13.8432 21.4629C13.8354 21.5284 13.8313 21.595 13.8313 21.6626C13.8313 21.7399 13.8366 21.816 13.8468 21.8905C13.9492 22.6356 14.5466 23.2228 15.2966 23.3097C15.3598 23.317 15.4242 23.3208 15.4895 23.3208Z" fill="#D8B675"/>
<path fill-rule="evenodd" clip-rule="evenodd" d="M30.5745 21.602C30.5745 29.989 23.7754 36.7881 15.3883 36.7881C7.00128 36.7881 0.202212 29.989 0.202212 21.602C0.202212 13.2149 7.00128 6.41584 15.3883 6.41584C23.7754 6.41584 30.5745 13.2149 30.5745 21.602ZM26.6371 16.3171C26.8954 16.6083 27.0735 16.892 27.1791 17.2095C27.2631 17.4621 27.2998 17.7312 27.2986 18.036C27.6406 19.1714 27.8244 20.3753 27.8244 21.6222C27.8244 26.646 24.8406 30.9729 20.5486 32.9274C20.3048 33.1234 20.0617 33.2634 19.7946 33.3523C19.5898 33.4204 19.3741 33.4574 19.1374 33.4683C17.9604 33.8385 16.7078 34.038 15.4086 34.038C10.2933 34.038 5.90058 30.9446 3.99896 26.5265C3.87683 26.3467 3.78411 26.1637 3.71892 25.9678C3.67297 25.8297 3.64118 25.6866 3.622 25.5354C3.21375 24.3051 2.99274 22.9895 2.99274 21.6222C2.99274 16.5859 5.99135 12.25 10.3006 10.3024C10.5383 10.1141 10.7759 9.97875 11.0364 9.8921C11.2364 9.82554 11.4469 9.7887 11.6772 9.77684C12.855 9.4062 14.1084 9.20636 15.4086 9.20636C20.3677 9.20636 24.6477 12.1138 26.6371 16.3171Z" fill="#D8B675"/>
<path d="M17.1709 21.3162L17.171 21.3163L17.1834 21.3283L22.575 15.9367L22.5814 15.9318C22.9067 15.6831 23.1821 15.5237 23.485 15.4342C23.7874 15.3449 24.1077 15.3282 24.5179 15.3502L24.519 15.3502L24.5202 15.3503C24.8741 15.3761 25.1491 15.4243 25.4159 15.5154C25.6692 15.6018 25.9103 15.7252 26.2003 15.8978C24.9 13.4513 22.792 11.4996 20.2321 10.398C20.3893 10.5297 20.5471 10.6859 20.7124 10.8681L20.7208 10.8774L20.7272 10.8882C20.9078 11.1963 21.0352 11.4471 21.1231 11.7113C21.2112 11.9762 21.2578 12.2492 21.2828 12.6006L21.2829 12.6017L21.283 12.6029C21.3042 13.0102 21.288 13.3281 21.2016 13.6282C21.1151 13.9289 20.9607 14.2024 20.7198 14.5257L20.715 14.5321L15.4962 19.8857L15.5097 19.8993C15.5386 19.9281 15.5499 19.9679 15.5436 20.0054C16.3047 20.0298 16.9362 20.5671 17.1039 21.283C17.1283 21.2866 17.1519 21.2976 17.1709 21.3162Z" fill="#D8B675"/>
<path d="M15.143 19.9003L15.1431 19.9002L15.1552 19.8878L9.76354 14.4962L9.75864 14.4898C9.50993 14.1645 9.35049 13.8891 9.26104 13.5862C9.17176 13.2839 9.15505 12.9636 9.17698 12.5533L9.17704 12.5522L9.17713 12.551C9.20294 12.1971 9.25114 11.9221 9.3422 11.6553C9.43298 11.3893 9.56458 11.1366 9.75106 10.8266L9.75759 10.8157L9.76622 10.8065C9.77802 10.7938 9.78977 10.7813 9.80149 10.7688C7.2845 12.0718 5.27856 14.2247 4.16348 16.8475C4.30715 16.6651 4.4836 16.4835 4.69491 16.2917L4.70422 16.2833L4.71508 16.2769C5.02308 16.0963 5.27397 15.9689 5.53812 15.881C5.80303 15.7929 6.07603 15.7463 6.42741 15.7213L6.42855 15.7212L6.4297 15.7211C6.83706 15.6999 7.15496 15.7161 7.45501 15.8025C7.75569 15.889 8.02921 16.0434 8.35249 16.2843L8.35893 16.2891L13.7125 21.508L13.7261 21.4944C13.7578 21.4626 13.8028 21.4522 13.8432 21.4629C13.9273 20.7629 14.4475 20.197 15.1242 20.0448C15.0983 19.9991 15.1044 19.9399 15.143 19.9004L15.143 19.9003Z" fill="#D8B675"/>
<path d="M13.7272 21.8611L13.727 21.861L13.7147 21.8489L8.32305 27.2406L8.31664 27.2455C7.99132 27.4942 7.71593 27.6536 7.41303 27.7431C7.11069 27.8323 6.79038 27.8491 6.38017 27.8271L6.37899 27.8271L6.37782 27.827C6.02395 27.8012 5.74895 27.753 5.48211 27.6619C5.21608 27.5711 4.96347 27.4395 4.65343 27.2531L4.64257 27.2465L4.6333 27.2379C4.58337 27.1914 4.53538 27.1455 4.4893 27.1001C5.7816 29.671 7.95517 31.7227 10.6135 32.8586C10.4514 32.7244 10.289 32.5641 10.1186 32.3763L10.1101 32.367L10.1037 32.3561C9.92315 32.0481 9.79574 31.7972 9.70787 31.5331C9.61975 31.2682 9.5731 30.9952 9.54811 30.6438L9.54803 30.6427L9.54797 30.6415C9.52674 30.2342 9.54293 29.9163 9.6293 29.6162C9.71585 29.3155 9.87019 29.042 10.1111 28.7187L10.1159 28.7123L15.3348 23.3587L15.3212 23.3451C15.3106 23.3346 15.3024 23.3225 15.2966 23.3097C14.5466 23.2228 13.9492 22.6356 13.8468 21.8905C13.806 21.9027 13.7599 21.893 13.7272 21.8611L13.7272 21.8611Z" fill="#D8B675"/>
<path d="M22.5456 26.893L22.5391 26.8882L17.1855 21.6693L17.1719 21.6829C17.1644 21.6905 17.156 21.6969 17.1471 21.702C17.128 22.5241 16.5104 23.1983 15.7132 23.3058C15.7075 23.3196 15.6991 23.3326 15.688 23.344L15.6879 23.3441L15.6878 23.3442L15.6758 23.3565L21.0674 28.7482L21.0723 28.7546C21.321 29.0799 21.4805 29.3553 21.5699 29.6582C21.6592 29.9605 21.6759 30.2808 21.654 30.6911L21.6539 30.6922L21.6538 30.6934C21.628 31.0473 21.5798 31.3223 21.4887 31.5891C21.398 31.8551 21.2664 32.1077 21.0799 32.4178L21.0734 32.4286L21.0647 32.4379C21.0574 32.4458 21.05 32.4537 21.0427 32.4615C23.5269 31.1676 25.5106 29.0447 26.6268 26.4596C26.5052 26.5989 26.3643 26.7393 26.2031 26.8856L26.1938 26.894L26.183 26.9004C25.875 27.081 25.6241 27.2084 25.3599 27.2962C25.095 27.3844 24.822 27.431 24.4706 27.456L24.4695 27.4561L24.4683 27.4561C24.061 27.4774 23.7431 27.4612 23.443 27.3748C23.1424 27.2883 22.8688 27.1339 22.5456 26.893Z" fill="#D8B675"/>
<path fill-rule="evenodd" clip-rule="evenodd" d="M91.9206 26.7032L86.407 21.3283L86.3946 21.3163L86.3945 21.3162C86.3945 21.3162 86.3945 21.3161 86.3098 21.403C86.2251 21.4899 86.2251 21.4899 86.2251 21.4899L86.2251 21.4899L86.2252 21.49L86.4092 21.6693L91.7627 26.8882L91.7692 26.893C92.0925 27.1339 92.366 27.2883 92.6667 27.3748C92.9667 27.4612 93.2846 27.4774 93.692 27.4561L93.6931 27.4561L93.6943 27.456C94.0456 27.431 94.3186 27.3844 94.5836 27.2962C94.8477 27.2084 95.0986 27.081 95.4066 26.9004L95.4174 26.894L95.4268 26.8856C95.588 26.7393 95.7289 26.5989 95.8504 26.4596C96.0785 26.1981 96.2383 25.9403 96.3361 25.6539C96.4857 25.2156 96.4845 24.726 96.3872 24.0813L96.3869 24.0795L96.3866 24.0778C96.3074 23.6398 96.1195 23.3189 95.8717 23.0903C95.6252 22.863 95.3256 22.7328 95.0299 22.6642C94.7342 22.5957 94.4382 22.5877 94.1924 22.6083C93.9501 22.6285 93.7442 22.6775 93.6325 22.732C93.2271 22.9296 92.8068 23.4212 93.0161 24.1336C93.0349 24.1979 93.1024 24.2347 93.1667 24.2158C93.231 24.1969 93.2678 24.1295 93.2489 24.0652C93.0824 23.4986 93.4066 23.1121 93.7388 22.9501C93.8115 22.9147 93.9831 22.8693 94.2126 22.8501C94.4387 22.8312 94.7088 22.8389 94.9751 22.9006C95.2412 22.9623 95.4992 23.0769 95.7072 23.2687C95.9135 23.459 96.0769 23.7309 96.1475 24.1192C96.2424 24.749 96.2373 25.1922 96.1065 25.5755C95.9767 25.9556 95.718 26.2922 95.273 26.6974C94.976 26.8711 94.7447 26.9869 94.507 27.066C94.2673 27.1457 94.0159 27.1898 93.6782 27.2139C93.283 27.2344 92.9962 27.2172 92.7338 27.1416C92.4736 27.0667 92.2283 26.9319 91.9206 26.7032ZM86.2229 21.3183C86.1761 21.3663 86.1771 21.4431 86.2251 21.4899L86.3098 21.403L86.3945 21.3162C86.3755 21.2976 86.352 21.2866 86.3276 21.283C86.2904 21.2775 86.2511 21.2893 86.2229 21.3183Z" fill="#D8B675"/>
<path fill-rule="evenodd" clip-rule="evenodd" d="M91.9588 16.1197L86.4092 21.6693L86.3956 21.6829C86.3956 21.6829 86.3956 21.6829 86.3098 21.5971C86.224 21.5113 86.224 21.5113 86.224 21.5113L86.407 21.3283L91.7986 15.9367L91.805 15.9318C92.1304 15.6831 92.4057 15.5237 92.7086 15.4342C93.011 15.3449 93.3313 15.3282 93.7415 15.3502L93.7427 15.3502L93.7439 15.3503C94.0977 15.3761 94.3727 15.4243 94.6396 15.5154C94.8928 15.6018 95.1339 15.7252 95.424 15.8978C95.4386 15.9065 95.4534 15.9153 95.4682 15.9242L95.4791 15.9308L95.4884 15.9394C95.6273 16.0688 95.7513 16.1936 95.8608 16.3171C96.1191 16.6083 96.2971 16.892 96.4028 17.2095C96.4868 17.4621 96.5234 17.7312 96.5223 18.036C96.5213 18.2757 96.497 18.5374 96.4539 18.8303L96.4536 18.832L96.4533 18.8337C96.3738 19.2846 96.1853 19.6151 95.9363 19.8507C95.6884 20.0852 95.3868 20.2198 95.0887 20.2907C94.7909 20.3615 94.4926 20.3697 94.245 20.3485C94.0009 20.3276 93.7934 20.2769 93.6808 20.2206C93.2719 20.0162 92.8522 19.5101 93.0615 18.7793C93.0799 18.7148 93.1471 18.6776 93.2115 18.696C93.276 18.7145 93.3132 18.7817 93.2948 18.8461C93.1258 19.4359 93.4557 19.8367 93.7893 20.0036C93.8623 20.0401 94.0348 20.0869 94.2657 20.1067C94.4931 20.1262 94.7648 20.1183 95.0326 20.0546C95.3002 19.991 95.5599 19.8727 95.7695 19.6744C95.9777 19.4775 96.1428 19.1958 96.2141 18.7933C96.3097 18.1425 96.3047 17.6834 96.1725 17.2861C96.0415 16.8923 95.7803 16.5441 95.3323 16.1256C95.0333 15.9463 94.8005 15.8267 94.5612 15.745C94.3201 15.6628 94.0672 15.6173 93.7274 15.5924C93.3297 15.5712 93.0412 15.589 92.7774 15.6669C92.5156 15.7442 92.2687 15.8835 91.9588 16.1197ZM86.224 21.6829C86.1766 21.6355 86.1766 21.5587 86.224 21.5113L86.3098 21.5971L86.3956 21.6829C86.388 21.6905 86.3796 21.6969 86.3708 21.702C86.3243 21.7291 86.2638 21.7227 86.224 21.6829Z" fill="#D8B675"/>
<path fill-rule="evenodd" clip-rule="evenodd" d="M89.7537 14.3742L84.3788 19.8878L84.3667 19.9002L84.3666 19.9003L84.3666 19.9004C84.3666 19.9004 84.3666 19.9004 84.4535 19.9851C84.5403 20.0698 84.5404 20.0697 84.5404 20.0697L84.5405 20.0696L84.7198 19.8857L89.9387 14.5321L89.9435 14.5257C90.1844 14.2024 90.3387 13.9289 90.4253 13.6282C90.5116 13.3281 90.5278 13.0102 90.5066 12.6029L90.5065 12.6017L90.5065 12.6006C90.4815 12.2492 90.4348 11.9762 90.3467 11.7113C90.2588 11.4471 90.1314 11.1963 89.9508 10.8882L89.9445 10.8774L89.936 10.8681C89.7707 10.6859 89.613 10.5297 89.4557 10.398C89.2127 10.1945 88.9709 10.0497 88.7043 9.95873C88.266 9.80913 87.7764 9.81034 87.1317 9.90766L87.13 9.90792L87.1282 9.90824C86.6903 9.98748 86.3693 10.1754 86.1408 10.4232C85.9135 10.6697 85.7832 10.9692 85.7147 11.265C85.6461 11.5606 85.6382 11.8567 85.6587 12.1024C85.679 12.3447 85.728 12.5506 85.7825 12.6623C85.98 13.0677 86.4717 13.4881 87.184 13.2788C87.2483 13.2599 87.2851 13.1925 87.2662 13.1282C87.2473 13.0639 87.1799 13.0271 87.1156 13.046C86.549 13.2124 86.1625 12.8883 86.0006 12.556C85.9652 12.4834 85.9197 12.3118 85.9005 12.0822C85.8817 11.8561 85.8893 11.586 85.951 11.3198C86.0127 11.0537 86.1273 10.7957 86.3192 10.5877C86.5095 10.3813 86.7814 10.2179 87.1697 10.1473C87.7994 10.0524 88.2427 10.0576 88.6259 10.1884C89.0061 10.3181 89.3426 10.5768 89.7479 11.0218C89.9215 11.3188 90.0374 11.5501 90.1165 11.7879C90.1962 12.0275 90.2403 12.2789 90.2643 12.6166C90.2849 13.0119 90.2676 13.2987 90.1921 13.5611C90.1172 13.8213 89.9823 14.0666 89.7537 14.3742ZM84.3688 20.0719C84.4168 20.1187 84.4936 20.1177 84.5404 20.0697L84.4535 19.9851L84.3666 19.9004C84.328 19.9399 84.3219 19.9991 84.3479 20.0448C84.3534 20.0546 84.3604 20.0637 84.3688 20.0719Z" fill="#D8B675"/>
<path fill-rule="evenodd" clip-rule="evenodd" d="M79.1702 14.3361L84.7198 19.8857L84.7334 19.8993C84.7334 19.8993 84.7334 19.8993 84.6476 19.9851C84.5618 20.0709 84.5618 20.0708 84.5618 20.0708L84.5618 20.0708L84.5617 20.0707L84.3788 19.8878L78.9872 14.4962L78.9823 14.4898C78.7336 14.1645 78.5741 13.8891 78.4847 13.5862C78.3954 13.2839 78.3787 12.9636 78.4006 12.5533L78.4007 12.5522L78.4008 12.551C78.4266 12.1971 78.4748 11.9221 78.5658 11.6553C78.6566 11.3893 78.7882 11.1366 78.9747 10.8266L78.9812 10.8157L78.9899 10.8065C79.0016 10.7938 79.0134 10.7813 79.0251 10.7688C79.1965 10.5872 79.3604 10.4322 79.5242 10.3024C79.7619 10.1141 79.9996 9.97875 80.26 9.8921C80.46 9.82554 80.6705 9.7887 80.9008 9.77684C81.19 9.76196 81.5104 9.78645 81.8808 9.84095L81.8825 9.8412L81.8842 9.8415C82.335 9.92102 82.6656 10.1095 82.9012 10.3586C83.1357 10.6065 83.2703 10.908 83.3412 11.2061C83.412 11.504 83.4202 11.8023 83.399 12.0499C83.378 12.2939 83.3274 12.5014 83.2711 12.6141C83.0666 13.023 82.5606 13.4427 81.8297 13.2333C81.7653 13.2149 81.728 13.1477 81.7465 13.0833C81.7649 13.0189 81.8321 12.9816 81.8965 13.0001C82.4864 13.169 82.8872 12.8392 83.054 12.5056C83.0905 12.4326 83.1374 12.2601 83.1572 12.0291C83.1767 11.8017 83.1688 11.53 83.1051 11.2623C83.0415 10.9947 82.9232 10.735 82.7249 10.5254C82.528 10.3172 82.2463 10.1521 81.8437 10.0808C81.1929 9.98513 80.7339 9.99015 80.3366 10.1223C79.9427 10.2534 79.5946 10.5145 79.1761 10.9625C78.9967 11.2616 78.8771 11.4944 78.7955 11.7337C78.7132 11.9747 78.6677 12.2276 78.6429 12.5675C78.6217 12.9652 78.6395 13.2536 78.7174 13.5175C78.7947 13.7793 78.9339 14.0262 79.1702 14.3361ZM84.7334 20.0709C84.686 20.1182 84.6092 20.1182 84.5618 20.0708L84.6476 19.9851L84.7334 19.8993C84.7623 19.9281 84.7735 19.9679 84.7672 20.0054C84.7632 20.0293 84.7519 20.0523 84.7334 20.0709Z" fill="#D8B675"/>
<path fill-rule="evenodd" clip-rule="evenodd" d="M77.4247 16.4741L82.9383 21.8489L82.9507 21.861L82.9508 21.8611L82.9508 21.8611C82.9508 21.8611 82.9508 21.8612 83.0355 21.7743C83.1202 21.6874 83.1202 21.6874 83.1202 21.6874L83.1202 21.6874L83.1201 21.6872L82.9361 21.508L77.5826 16.2891L77.5761 16.2843C77.2528 16.0434 76.9793 15.889 76.6786 15.8025C76.3786 15.7161 76.0607 15.6999 75.6533 15.7211L75.6522 15.7212L75.651 15.7213C75.2997 15.7463 75.0267 15.7929 74.7618 15.881C74.4976 15.9689 74.2467 16.0963 73.9387 16.2769L73.9279 16.2833L73.9185 16.2917C73.7072 16.4835 73.5308 16.6651 73.3871 16.8475C73.2156 17.0654 73.0908 17.2845 73.0092 17.5234C72.8596 17.9617 72.8608 18.4513 72.9581 19.096L72.9584 19.0978L72.9587 19.0995C73.0379 19.5375 73.2258 19.8584 73.4736 20.087C73.7201 20.3143 74.0197 20.4445 74.3154 20.5131C74.6111 20.5816 74.9071 20.5895 75.1529 20.569C75.3952 20.5488 75.6011 20.4997 75.7128 20.4453C76.1182 20.2477 76.5385 19.7561 76.3292 19.0437C76.3104 18.9794 76.2429 18.9426 76.1786 18.9615C76.1143 18.9804 76.0775 19.0478 76.0964 19.1121C76.2629 19.6787 75.9387 20.0652 75.6065 20.2272C75.5338 20.2626 75.3623 20.308 75.1327 20.3272C74.9066 20.3461 74.6365 20.3384 74.3702 20.2767C74.1041 20.215 73.8461 20.1004 73.6381 19.9086C73.4318 19.7183 73.2684 19.4464 73.1978 19.0581C73.1029 18.4283 73.108 17.9851 73.2388 17.6018C73.3686 17.2217 73.6273 16.8851 74.0723 16.4799C74.3693 16.3062 74.6006 16.1904 74.8383 16.1113C75.078 16.0316 75.3294 15.9875 75.6671 15.9634C76.0623 15.9429 76.3491 15.9601 76.6115 16.0357C76.8717 16.1106 77.117 16.2454 77.4247 16.4741ZM83.1224 21.859C83.1692 21.811 83.1682 21.7342 83.1202 21.6874L83.0355 21.7743L82.9508 21.8611C82.9835 21.893 83.0296 21.9027 83.0705 21.8905C83.0896 21.8848 83.1075 21.8743 83.1224 21.859Z" fill="#D8B675"/>
<path fill-rule="evenodd" clip-rule="evenodd" d="M77.3865 27.0576L82.9361 21.508L82.9497 21.4944C82.9497 21.4944 82.9497 21.4944 83.0355 21.5801C83.1213 21.6659 83.1213 21.666 83.1213 21.666L82.9383 21.8489L77.5467 27.2406L77.5403 27.2455C77.2149 27.4942 76.9396 27.6536 76.6367 27.7431C76.3343 27.8323 76.014 27.8491 75.6038 27.8271L75.6026 27.8271L75.6014 27.827C75.2476 27.8012 74.9726 27.753 74.7057 27.6619C74.4397 27.5711 74.1871 27.4395 73.8771 27.2531L73.8662 27.2465L73.8569 27.2379C73.807 27.1914 73.759 27.1455 73.7129 27.1001C73.5149 26.9047 73.3522 26.7174 73.2226 26.5265C73.1005 26.3467 73.0077 26.1637 72.9426 25.9678C72.8966 25.8297 72.8648 25.6866 72.8456 25.5354C72.8022 25.1928 72.8235 24.8086 72.8914 24.347L72.8917 24.3452L72.892 24.3435C72.9715 23.8927 73.16 23.5622 73.4091 23.3266C73.6569 23.0921 73.9585 22.9575 74.2566 22.8866C74.5544 22.8158 74.8527 22.8076 75.1003 22.8288C75.3444 22.8497 75.5519 22.9004 75.6645 22.9567C76.0734 23.1611 76.4931 23.6671 76.2838 24.398C76.2654 24.4624 76.1982 24.4997 76.1338 24.4813C76.0693 24.4628 76.0321 24.3956 76.0505 24.3312C76.2195 23.7414 75.8896 23.3405 75.556 23.1737C75.483 23.1372 75.3105 23.0903 75.0796 23.0705C74.8522 23.0511 74.5805 23.059 74.3127 23.1227C74.0451 23.1863 73.7854 23.3045 73.5758 23.5028C73.3677 23.6998 73.2025 23.9815 73.1312 24.384C73.0356 25.0348 73.0406 25.4939 73.1728 25.8911C73.3039 26.285 73.565 26.6331 74.013 27.0516C74.312 27.231 74.5448 27.3506 74.7841 27.4323C75.0252 27.5145 75.2781 27.56 75.6179 27.5849C76.0156 27.6061 76.3041 27.5883 76.5679 27.5103C76.8297 27.433 77.0766 27.2938 77.3865 27.0576ZM83.1213 21.4944C83.1687 21.5417 83.1687 21.6186 83.1213 21.666L83.0355 21.5801L82.9497 21.4944C82.9815 21.4626 83.0264 21.4522 83.0668 21.4629C83.0868 21.4682 83.1057 21.4787 83.1213 21.4944Z" fill="#D8B675"/>
<path fill-rule="evenodd" clip-rule="evenodd" d="M79.5246 28.8701L84.8994 23.3565L84.9115 23.3442L84.9116 23.3441L84.9116 23.344C84.9116 23.344 84.9116 23.344 84.8247 23.2593C84.7379 23.1746 84.7379 23.1746 84.7379 23.1746L84.7378 23.1747L84.7377 23.1748L84.5584 23.3587L79.3396 28.7123L79.3348 28.7187C79.0938 29.042 78.9395 29.3155 78.8529 29.6162C78.7666 29.9163 78.7504 30.2342 78.7716 30.6415L78.7717 30.6427L78.7717 30.6438C78.7967 30.9952 78.8434 31.2682 78.9315 31.5331C79.0194 31.7972 79.1468 32.0481 79.3274 32.3561L79.3337 32.367L79.3422 32.3763C79.5126 32.5641 79.675 32.7244 79.8371 32.8586C80.0752 33.0557 80.3126 33.1965 80.5739 33.2857C81.0122 33.4353 81.5018 33.4341 82.1465 33.3367L82.1482 33.3365L82.15 33.3362C82.588 33.2569 82.9089 33.069 83.1374 32.8212C83.3647 32.5747 83.495 32.2752 83.5635 31.9794C83.6321 31.6838 83.64 31.3877 83.6195 31.142C83.5992 30.8997 83.5502 30.6938 83.4957 30.582C83.2982 30.1767 82.8065 29.7563 82.0942 29.9656C82.0299 29.9845 81.9931 30.0519 82.012 30.1162C82.0309 30.1805 82.0983 30.2173 82.1626 30.1984C82.7292 30.032 83.1157 30.3561 83.2776 30.6884C83.313 30.761 83.3585 30.9326 83.3777 31.1622C83.3965 31.3883 83.3889 31.6584 83.3272 31.9246C83.2655 32.1907 83.1509 32.4487 82.959 32.6567C82.7687 32.8631 82.4968 33.0265 82.1085 33.0971C81.4788 33.192 81.0355 33.1868 80.6523 33.056C80.2722 32.9263 79.9356 32.6676 79.5303 32.2225C79.3567 31.9256 79.2408 31.6943 79.1618 31.4565C79.082 31.2169 79.0379 30.9655 79.0139 30.6277C78.9933 30.2325 79.0106 29.9457 79.0861 29.6833C79.161 29.4231 79.2959 29.1778 79.5246 28.8701ZM84.9094 23.1725C84.8614 23.1257 84.7846 23.1267 84.7379 23.1746L84.8247 23.2593L84.9116 23.344C84.9227 23.3326 84.9311 23.3196 84.9368 23.3058C84.9553 23.2613 84.946 23.2081 84.9094 23.1725Z" fill="#D8B675"/>
<path fill-rule="evenodd" clip-rule="evenodd" d="M90.108 28.9083L84.5584 23.3587L84.5448 23.3451C84.5448 23.3451 84.5448 23.3451 84.6306 23.2593C84.7164 23.1735 84.7164 23.1735 84.7164 23.1735L84.7164 23.1736L84.7166 23.1737L84.8994 23.3565L90.291 28.7482L90.2959 28.7546C90.5446 29.0799 90.7041 29.3553 90.7935 29.6582C90.8828 29.9605 90.8995 30.2808 90.8776 30.6911L90.8775 30.6922L90.8774 30.6934C90.8516 31.0473 90.8034 31.3223 90.7124 31.5891C90.6216 31.8551 90.49 32.1077 90.3035 32.4178L90.297 32.4286L90.2884 32.4379C90.281 32.4458 90.2736 32.4537 90.2663 32.4615C90.0965 32.6424 89.9342 32.7973 89.7722 32.9274C89.5284 33.1234 89.2853 33.2634 89.0182 33.3523C88.8135 33.4204 88.5977 33.4574 88.361 33.4683C88.0761 33.4815 87.7608 33.4569 87.3974 33.4034L87.3957 33.4032L87.394 33.4029C86.9432 33.3234 86.6127 33.1349 86.377 32.8858C86.1425 32.6379 86.0079 32.3363 85.937 32.0383C85.8662 31.7404 85.858 31.4421 85.8792 31.1945C85.9002 30.9505 85.9508 30.743 86.0071 30.6303C86.2116 30.2214 86.7176 29.8017 87.4485 30.011C87.5129 30.0295 87.5502 30.0967 87.5317 30.1611C87.5133 30.2255 87.4461 30.2628 87.3817 30.2443C86.7918 30.0754 86.391 30.4052 86.2242 30.7388C86.1877 30.8118 86.1408 30.9843 86.121 31.2153C86.1015 31.4427 86.1094 31.7144 86.1731 31.9821C86.2367 32.2497 86.355 32.5094 86.5533 32.719C86.7502 32.9272 87.0319 33.0923 87.4345 33.1636C88.0853 33.2593 88.5443 33.2542 88.9416 33.1221C89.3355 32.991 89.6836 32.7299 90.1021 32.2818C90.2815 31.9828 90.4011 31.75 90.4827 31.5107C90.565 31.2697 90.6105 31.0168 90.6353 30.6769C90.6565 30.2792 90.6387 29.9908 90.5608 29.7269C90.4835 29.4651 90.3443 29.2182 90.108 28.9083ZM84.5448 23.1735C84.5922 23.1262 84.669 23.1262 84.7164 23.1735L84.6306 23.2593L84.5448 23.3451C84.5343 23.3346 84.526 23.3225 84.5202 23.3097C84.4998 23.2649 84.508 23.2103 84.5448 23.1735Z" fill="#D8B675"/>
<path fill-rule="evenodd" clip-rule="evenodd" d="M84.612 36.7881C92.9991 36.7881 99.7981 29.989 99.7981 21.602C99.7981 13.2149 92.9991 6.41584 84.612 6.41584C76.2249 6.41584 69.4258 13.2149 69.4258 21.602C69.4258 29.989 76.2249 36.7881 84.612 36.7881ZM84.612 36.9903C93.1107 36.9903 100 30.1007 100 21.602C100 13.1032 93.1107 6.21362 84.612 6.21362C76.1132 6.21362 69.2236 13.1032 69.2236 21.602C69.2236 30.1007 76.1132 36.9903 84.612 36.9903Z" fill="#D8B675"/>
<path fill-rule="evenodd" clip-rule="evenodd" d="M84.6322 33.8358C86.6644 33.8358 88.5806 33.3395 90.2663 32.4615C92.7506 31.1676 94.7342 29.0447 95.8504 26.4596C96.4909 24.9762 96.8458 23.3406 96.8458 21.6222C96.8458 19.5537 96.3316 17.6052 95.424 15.8978C94.1236 13.4513 92.0157 11.4996 89.4557 10.398C87.976 9.76127 86.3453 9.40858 84.6322 9.40858C82.6109 9.40858 80.7043 9.89959 79.0251 10.7688C76.5081 12.0718 74.5022 14.2247 73.3871 16.8475C72.7636 18.3142 72.4186 19.9279 72.4186 21.6222C72.4186 23.5918 72.8848 25.4526 73.7129 27.1001C75.0052 29.671 77.1788 31.7227 79.8371 32.8586C81.3093 33.4876 82.9301 33.8358 84.6322 33.8358ZM84.6322 34.038C85.9314 34.038 87.184 33.8385 88.361 33.4683C88.8448 33.3162 89.3159 33.1352 89.7722 32.9274C94.0643 30.9729 97.048 26.646 97.048 21.6222C97.048 20.3753 96.8642 19.1714 96.5223 18.036C96.3437 17.4431 96.122 16.8689 95.8608 16.3171C93.8714 12.1138 89.5913 9.20636 84.6322 9.20636C83.3321 9.20636 82.0786 9.4062 80.9008 9.77684C80.4292 9.92527 79.9697 10.1011 79.5242 10.3024C75.215 12.25 72.2164 16.5859 72.2164 21.6222C72.2164 22.9895 72.4374 24.3051 72.8456 25.5354C72.9575 25.8724 73.0834 26.203 73.2226 26.5265C75.1242 30.9446 79.517 34.038 84.6322 34.038Z" fill="#D8B675"/>
<path fill-rule="evenodd" clip-rule="evenodd" d="M84.7131 23.1994C85.5618 23.1994 86.2499 22.5114 86.2499 21.6626C86.2499 20.8139 85.5618 20.1258 84.7131 20.1258C83.8643 20.1258 83.1763 20.8139 83.1763 21.6626C83.1763 22.5114 83.8643 23.1994 84.7131 23.1994ZM84.7131 23.3208C84.789 23.3208 84.8637 23.3157 84.9368 23.3058C85.7341 23.1983 86.3516 22.5241 86.3708 21.702C86.3711 21.6889 86.3712 21.6758 86.3712 21.6626C86.3712 21.532 86.3561 21.4049 86.3276 21.283C86.1599 20.5671 85.5283 20.0298 84.7672 20.0054C84.7492 20.0048 84.7312 20.0045 84.7131 20.0045C84.5876 20.0045 84.4654 20.0184 84.3479 20.0448C83.6711 20.197 83.1509 20.7629 83.0668 21.4629C83.059 21.5284 83.0549 21.595 83.0549 21.6626C83.0549 21.7399 83.0602 21.816 83.0705 21.8905C83.1729 22.6356 83.7703 23.2228 84.5202 23.3097C84.5835 23.317 84.6478 23.3208 84.7131 23.3208Z" fill="#D8B675"/>
<path fill-rule="evenodd" clip-rule="evenodd" d="M99.7981 21.602C99.7981 29.989 92.9991 36.7881 84.612 36.7881C76.2249 36.7881 69.4258 29.989 69.4258 21.602C69.4258 13.2149 76.2249 6.41584 84.612 6.41584C92.9991 6.41584 99.7981 13.2149 99.7981 21.602ZM95.8608 16.3171C96.1191 16.6083 96.2971 16.892 96.4028 17.2095C96.4868 17.4621 96.5234 17.7312 96.5223 18.036C96.8642 19.1714 97.048 20.3753 97.048 21.6222C97.048 26.646 94.0643 30.9729 89.7722 32.9274C89.5284 33.1234 89.2853 33.2634 89.0182 33.3523C88.8135 33.4204 88.5977 33.4574 88.361 33.4683C87.184 33.8385 85.9314 34.038 84.6322 34.038C79.517 34.038 75.1242 30.9446 73.2226 26.5265C73.1005 26.3467 73.0077 26.1637 72.9426 25.9678C72.8966 25.8297 72.8648 25.6866 72.8456 25.5354C72.4374 24.3051 72.2164 22.9895 72.2164 21.6222C72.2164 16.5859 75.215 12.25 79.5242 10.3024C79.7619 10.1141 79.9996 9.97875 80.26 9.8921C80.46 9.82554 80.6705 9.7887 80.9008 9.77684C82.0786 9.4062 83.3321 9.20636 84.6322 9.20636C89.5913 9.20636 93.8714 12.1138 95.8608 16.3171Z" fill="#D8B675"/>
<path d="M86.3945 21.3162L86.3946 21.3163L86.407 21.3283L91.7986 15.9367L91.805 15.9318C92.1304 15.6831 92.4057 15.5237 92.7086 15.4342C93.011 15.3449 93.3313 15.3282 93.7415 15.3502L93.7427 15.3502L93.7439 15.3503C94.0977 15.3761 94.3727 15.4243 94.6396 15.5154C94.8928 15.6018 95.1339 15.7252 95.424 15.8978C94.1236 13.4513 92.0157 11.4996 89.4557 10.398C89.613 10.5297 89.7707 10.6859 89.936 10.8681L89.9445 10.8774L89.9508 10.8882C90.1314 11.1963 90.2588 11.4471 90.3467 11.7113C90.4348 11.9762 90.4815 12.2492 90.5065 12.6006L90.5065 12.6017L90.5066 12.6029C90.5278 13.0102 90.5116 13.3281 90.4253 13.6282C90.3387 13.9289 90.1844 14.2024 89.9435 14.5257L89.9387 14.5321L84.7198 19.8857L84.7334 19.8993C84.7623 19.9281 84.7735 19.9679 84.7672 20.0054C85.5283 20.0298 86.1599 20.5671 86.3276 21.283C86.352 21.2866 86.3755 21.2976 86.3945 21.3162Z" fill="#D8B675"/>
<path d="M84.3666 19.9003L84.3667 19.9002L84.3788 19.8878L78.9872 14.4962L78.9823 14.4898C78.7336 14.1645 78.5741 13.8891 78.4847 13.5862C78.3954 13.2839 78.3787 12.9636 78.4006 12.5533L78.4007 12.5522L78.4008 12.551C78.4266 12.1971 78.4748 11.9221 78.5658 11.6553C78.6566 11.3893 78.7882 11.1366 78.9747 10.8266L78.9812 10.8157L78.9899 10.8065C79.0016 10.7938 79.0134 10.7813 79.0251 10.7688C76.5081 12.0718 74.5022 14.2247 73.3871 16.8475C73.5308 16.6651 73.7072 16.4835 73.9185 16.2917L73.9279 16.2833L73.9387 16.2769C74.2467 16.0963 74.4976 15.9689 74.7618 15.881C75.0267 15.7929 75.2997 15.7463 75.651 15.7213L75.6522 15.7212L75.6533 15.7211C76.0607 15.6999 76.3786 15.7161 76.6786 15.8025C76.9793 15.889 77.2528 16.0434 77.5761 16.2843L77.5826 16.2891L82.9361 21.508L82.9497 21.4944C82.9815 21.4626 83.0264 21.4522 83.0668 21.4629C83.1509 20.7629 83.6711 20.197 84.3479 20.0448C84.3219 19.9991 84.328 19.9399 84.3666 19.9004L84.3666 19.9003Z" fill="#D8B675"/>
<path d="M82.9508 21.8611L82.9507 21.861L82.9383 21.8489L77.5467 27.2406L77.5403 27.2455C77.2149 27.4942 76.9396 27.6536 76.6367 27.7431C76.3343 27.8323 76.014 27.8491 75.6038 27.8271L75.6026 27.8271L75.6014 27.827C75.2476 27.8012 74.9726 27.753 74.7057 27.6619C74.4397 27.5711 74.1871 27.4395 73.8771 27.2531L73.8662 27.2465L73.8569 27.2379C73.807 27.1914 73.759 27.1455 73.7129 27.1001C75.0052 29.671 77.1788 31.7227 79.8371 32.8586C79.675 32.7244 79.5126 32.5641 79.3422 32.3763L79.3337 32.367L79.3274 32.3561C79.1468 32.0481 79.0194 31.7972 78.9315 31.5331C78.8434 31.2682 78.7967 30.9952 78.7717 30.6438L78.7717 30.6427L78.7716 30.6415C78.7504 30.2342 78.7666 29.9163 78.8529 29.6162C78.9395 29.3155 79.0938 29.042 79.3348 28.7187L79.3396 28.7123L84.5584 23.3587L84.5448 23.3451C84.5343 23.3346 84.526 23.3225 84.5202 23.3097C83.7703 23.2228 83.1729 22.6356 83.0705 21.8905C83.0296 21.9027 82.9835 21.893 82.9508 21.8611L82.9508 21.8611Z" fill="#D8B675"/>
<path d="M91.7692 26.893L91.7627 26.8882L86.4092 21.6693L86.3956 21.6829C86.388 21.6905 86.3796 21.6969 86.3708 21.702C86.3516 22.5241 85.7341 23.1983 84.9368 23.3058C84.9311 23.3196 84.9227 23.3326 84.9116 23.344L84.9116 23.3441L84.9115 23.3442L84.8994 23.3565L90.291 28.7482L90.2959 28.7546C90.5446 29.0799 90.7041 29.3553 90.7935 29.6582C90.8828 29.9605 90.8995 30.2808 90.8776 30.6911L90.8775 30.6922L90.8774 30.6934C90.8516 31.0473 90.8034 31.3223 90.7124 31.5891C90.6216 31.8551 90.49 32.1077 90.3035 32.4178L90.297 32.4286L90.2884 32.4379C90.281 32.4458 90.2736 32.4537 90.2663 32.4615C92.7506 31.1676 94.7342 29.0447 95.8504 26.4596C95.7289 26.5989 95.588 26.7393 95.4268 26.8856L95.4174 26.894L95.4066 26.9004C95.0986 27.081 94.8477 27.2084 94.5836 27.2962C94.3186 27.3844 94.0456 27.431 93.6943 27.456L93.6931 27.4561L93.692 27.4561C93.2846 27.4774 92.9667 27.4612 92.6667 27.3748C92.366 27.2883 92.0925 27.1339 91.7692 26.893Z" fill="#D8B675"/>
</svg>
