<svg width="524" height="524" viewBox="0 0 524 524" fill="none" xmlns="http://www.w3.org/2000/svg">
<g filter="url(#filter0_d_311_16)">
<path d="M296.897 253.328C296.897 253.328 315.04 271.015 414.815 368.278C428.329 378.35 437.001 380.666 454.121 379.774C468.823 378.728 476.489 375.905 489.496 368.278C508.986 350.592 513.253 337.99 509.149 310.803C502.768 275.538 461.982 280.15 454.121 283.981C446.26 287.813 438.325 297.172 442.329 310.803" stroke="#30D5C8" stroke-width="15" stroke-linecap="round"/>
<path d="M296.897 257.466C296.897 257.466 315.162 239.201 415.604 138.759C429.208 128.358 437.939 125.967 455.173 126.888C469.973 127.968 477.691 130.883 490.786 138.759C510.406 157.023 514.701 170.037 510.57 198.112C504.146 234.53 463.087 229.768 455.173 225.811C447.26 221.854 439.271 212.189 443.303 198.112" stroke="#30D5C8" stroke-width="15" stroke-linecap="round"/>
<path d="M257.328 223.103C257.328 223.103 275.015 204.96 372.279 105.185C382.35 91.6714 384.666 82.9993 383.774 65.8791C382.728 51.1776 379.905 43.5109 372.279 30.5037C354.592 11.0141 341.99 6.74711 314.803 10.8508C279.538 17.2317 284.15 58.0179 287.982 65.8791C291.813 73.7403 301.173 81.6756 314.803 77.6709" stroke="#30D5C8" stroke-width="15" stroke-linecap="round"/>
<path d="M261.466 223.103C261.466 223.103 243.201 204.838 142.759 104.396C132.359 90.7917 129.967 82.0615 130.888 64.8268C131.968 50.0269 134.883 42.3088 142.759 29.2147C161.023 9.59455 174.038 5.29902 202.113 9.43014C238.531 15.8538 233.768 56.913 229.811 64.8268C225.854 72.7406 216.189 80.729 202.113 76.6975" stroke="#30D5C8" stroke-width="15" stroke-linecap="round"/>
<path d="M227.103 261.242C227.103 261.242 208.96 243.555 109.185 146.291C95.6717 136.22 86.9996 133.904 69.8794 134.796C55.1779 135.842 47.5111 138.665 34.504 146.291C15.0143 163.978 10.7474 176.58 14.851 203.767C21.232 239.032 62.0182 234.42 69.8794 230.588C77.7406 226.757 85.6759 217.397 81.6712 203.767" stroke="#30D5C8" stroke-width="15" stroke-linecap="round"/>
<path d="M227.103 257.104C227.103 257.104 208.839 275.368 108.396 375.811C94.792 386.211 86.0618 388.603 68.8271 387.682C54.0272 386.602 46.3091 383.686 33.2149 375.811C13.5948 357.547 9.29925 344.532 13.4304 316.457C19.854 280.039 60.9132 284.802 68.8271 288.759C76.7409 292.716 84.7293 302.381 80.6978 316.457" stroke="#30D5C8" stroke-width="15" stroke-linecap="round"/>
<path d="M265.242 292.897C265.242 292.897 247.555 311.04 150.292 410.815C140.22 424.329 137.904 433.001 138.797 450.121C139.842 464.822 142.665 472.489 150.292 485.496C167.978 504.986 180.58 509.253 207.767 505.149C243.032 498.768 238.42 457.982 234.589 450.121C230.757 442.26 221.398 434.324 207.767 438.329" stroke="#30D5C8" stroke-width="15" stroke-linecap="round"/>
<path d="M261.104 292.897C261.104 292.897 279.369 311.162 379.811 411.604C390.212 425.208 392.603 433.938 391.682 451.173C390.602 465.973 387.687 473.691 379.811 486.785C361.547 506.405 348.533 510.701 320.458 506.57C284.039 500.146 288.802 459.087 292.759 451.173C296.716 443.259 306.381 435.271 320.457 439.302" stroke="#30D5C8" stroke-width="15" stroke-linecap="round"/>
</g>
<defs>
<filter id="filter0_d_311_16" x="0.5" y="0.499786" width="523" height="523" color-interpolation-filters="sRGB">
<feFlood flood-opacity="0" result="BackgroundImageFix"/>
<feColorMatrix in="SourceAlpha" values="0 0 0 0 0 0 0 0 0 0 0 0 0 0 0 0 0 0 127 0" result="hardAlpha"/>
<feOffset dy="4"/>
<feGaussianBlur stdDeviation="2"/>
<feComposite in2="hardAlpha" operator="out"/>
<feColorMatrix values="0 0 0 0 0.188235 0 0 0 0 0.835294 0 0 0 0 0.784314 0 0 0 0.24 0"/>
<feBlend in2="BackgroundImageFix" result="effect1_dropShadow_311_16"/>
<feBlend in="SourceGraphic" in2="effect1_dropShadow_311_16" result="shape"/>
</filter>
</defs>
</svg>
